# xmcd
#
# Track frame offsets:
#	150
#	16314
#	32483
#	47135
#	62391
#	79105
#	94736
#	111448
#	127858
#	142246
#	155061
#	172723
#	186025
#
# Disc length: 2724 seconds
#
# Revision: 0
# Processed by: cddbd v1.5.2PL0 Copyright (c) Steve Scherf et al.
# Submitted via: audiograbber 1.83.01
#
DISCID=a20aa20d
DTITLE=Various Artist - CDX Volume 579 (September 16, 2013)
DYEAR=2013
DGENRE=Country
TTITLE0=Gary Allan - It Ain't the Whiskey [Radio Edit]
TTITLE1=Steve Holy - Radio Up
TTITLE2=Lacs - She's Runnin' 
TTITLE3=Leah Turner - Take the Keys 
TTITLE4=Aaron and Amanda Crabb - If I'm Guilty [** DO NOT USE.  Use version of tr
TTITLE4=ack at CDX Download Center or on CDX 580 **]
TTITLE5=Aaron Watson - July In Cheyenne 
TTITLE6=Susan Ashton - Moonshine 
TTITLE7=Erica Nicole - Daughter of the Revolution
TTITLE8=Brad Long - Every Heart Has A Different Road
TTITLE9=Brittany Spriggs - Full Moon Friday 
TTITLE10=Ben Wasson - Lady's Choice 
TTITLE11=Jeff Maddox - My Baby 
TTITLE12=Grayson - You and America
EXTD=
EXTT0=
EXTT1=
EXTT2=
EXTT3=
EXTT4=
EXTT5=
EXTT6=
EXTT7=
EXTT8=
EXTT9=
EXTT10=
EXTT11=
EXTT12=
PLAYORDER=
